<?xml version="1.0" encoding="UTF-8"?>
<!DOCTYPE svg PUBLIC "-//W3C//DTD SVG 1.1//EN" "http://www.w3.org/Graphics/SVG/1.1/DTD/svg11.dtd">
<!-- Creator: CorelDRAW 2020 (64-Bit) -->
<svg xmlns="http://www.w3.org/2000/svg" xml:space="preserve" width="271px" height="150px" version="1.1" style="shape-rendering:geometricPrecision; text-rendering:geometricPrecision; image-rendering:optimizeQuality; fill-rule:evenodd; clip-rule:evenodd"
viewBox="0 0 276 153"
 xmlns:xlink="http://www.w3.org/1999/xlink"
 xmlns:xodm="http://www.corel.com/coreldraw/odm/2003">
 <defs>
  <style type="text/css">
   <![CDATA[
    .fil3 {fill:#091230}
    .fil2 {fill:#1E8183}
    .fil1 {fill:#99D7D5}
    .fil5 {fill:#B3DEDC}
    .fil4 {fill:#D9D258}
    .fil0 {fill:#FEFEFE}
    .fnt0 {font-weight:normal;font-size:41px;font-family:'Arial'}
   ]]>
  </style>
 </defs>
 <g id="Слой_x0020_1">
  <metadata id="CorelCorpID_0Corel-Layer"/>
  <g id="_2046645917152">
   <g>
    <path class="fil0" d="M114 80c2,1 23,12 24,12 0,0 23,-11 24,-13l0 -43c-5,1 -21,12 -24,12 -3,0 -19,-11 -23,-12l0 44z"/>
    <path class="fil1" d="M165 37l0 9c2,0 42,-21 46,-24l0 -12c-3,1 -36,18 -42,22 -3,1 -4,1 -4,5z"/>
    <path class="fil1" d="M64 22c2,1 44,23 46,24l0 -12c-7,-3 -42,-23 -47,-24l0 11z"/>
    <path class="fil2" d="M92 20c1,2 28,16 30,16l4 -12c-2,-3 -5,-5 -7,-8l6 0c0,-2 -1,-4 -1,-5l-1 -4c0,-1 1,1 0,-1 0,0 0,0 0,0 0,0 0,0 0,0l-31 16z"/>
    <path class="fil2" d="M150 14l13 0c-1,2 -11,11 -14,14l5 7c2,0 27,-13 31,-16 -1,-1 1,0 -1,-1l-30 -15 -3 11z"/>
    <path class="fil1" d="M126 38c1,1 11,6 12,6 2,0 10,-5 12,-6 -1,-3 -6,-6 -6,-10 2,-2 9,-8 10,-10l-26 0c3,5 4,2 2,9 -1,3 -3,8 -3,11z"/>
    <path class="fil1" d="M76 44c7,3 31,17 35,18 0,-4 1,-8 0,-12 -5,-3 -32,-17 -35,-18l0 12z"/>
    <path class="fil1" d="M166 50l0 11c2,0 32,-16 35,-18l0 -11c-2,0 -31,16 -35,18z"/>
    <path class="fil1" d="M89 67c3,2 19,10 22,11l0 -11c-4,-2 -19,-11 -22,-11l0 12z"/>
    <path class="fil1" d="M165 69l0 9c3,0 18,-9 21,-11l0 -12c-2,1 -14,7 -17,9 -3,2 -4,1 -4,5z"/>
    <path class="fil2" d="M166 82l0 12c2,-1 13,-7 17,-8 6,-3 5,0 5,-14 -3,1 -18,9 -22,11z"/>
    <path class="fil1" d="M140 96l0 11c5,-1 16,-9 22,-11l0 -12c-5,1 -17,9 -22,11z"/>
    <path class="fil2" d="M89 83c2,2 19,11 22,11l0 -12c-4,-2 -19,-10 -22,-11l0 11z"/>
    <path class="fil1" d="M114 95c1,2 3,3 5,3 4,2 14,8 17,9l0 -12 -22 -11 0 11z"/>
    <path class="fil3" d="M131 79l4 0 0 -12c2,1 7,8 8,11 2,2 2,2 5,1 -3,-4 -6,-8 -9,-12 2,-4 7,-9 9,-12 -8,0 -8,9 -13,12l0 -12 -4 0 0 25z"/>
    <path class="fil4" d="M134 10l-6 -4c0,2 1,8 3,9l16 0 2 -8c-3,1 -4,3 -7,4l-4 -10c-3,2 -2,8 -4,10z"/>
   </g>
   <text x="-3" y="152"  class="fil5 fnt0">КРИПТОФОРТ</text>
  </g>
 </g>
</svg>
